<svg id="Capa_1" data-name="Capa 1" xmlns="http://www.w3.org/2000/svg" viewBox="0 0 512 436.01"><defs><style>.cls-1{fill:#fff;}.cls-2{fill:#ff1c00;}</style></defs><title>attention</title><path class="cls-1" d="M488.52,420.41c9.87,17.87,1.87,33.76-19.94,33.76H43.47c-21.81,0-29.8-15.89-17.86-33.76L244.14,66.87c5.92-12,17.86-12,25.86,0ZM275.81,315.2V196c0-11.95-7.89-19.84-19.83-19.84A19.88,19.88,0,0,0,236.14,196V315.2C236.14,327.15,244,335,256,335A19.88,19.88,0,0,0,275.81,315.2Zm0,79.46A19.84,19.84,0,1,0,256,414.49,19.83,19.83,0,0,0,275.81,394.66Z" transform="translate(0 -38)"/><path class="cls-2" d="M502.34,406.5c21.81,37.8,5.92,67.51-39.78,67.51H47.42C3.8,474-12.09,444.2,9.72,406.5L224.19,58.87c17.87-27.83,45.7-27.83,63.57,0Zm-33.76,47.67c21.81,0,29.81-15.89,19.94-33.76L270,66.87c-8-12-19.94-12-25.86,0L25.61,420.41c-11.94,17.87-3.95,33.76,17.86,33.76Z" transform="translate(0 -38)"/><path class="cls-2" d="M275.81,196V315.2A19.88,19.88,0,0,1,256,335c-11.95,0-19.84-7.89-19.84-19.84V196A19.88,19.88,0,0,1,256,176.13C267.92,176.13,275.81,184,275.81,196Z" transform="translate(0 -38)"/><path class="cls-2" d="M256,374.82a19.84,19.84,0,1,1-19.84,19.84A19.83,19.83,0,0,1,256,374.82Z" transform="translate(0 -38)"/></svg>