<svg id="Слой_1" data-name="Слой 1" xmlns="http://www.w3.org/2000/svg" viewBox="0 0 100 100"><defs><style>.cls-1{fill:#007ef4;}.cls-2{fill:#fff;}</style></defs><title>radio</title><circle class="cls-1" cx="50" cy="50" r="50"/><path class="cls-2" d="M50.45,36A14.41,14.41,0,1,0,64.86,50.45,14.43,14.43,0,0,0,50.45,36Zm5.71,25.13-3.84-7.09a4.05,4.05,0,0,1-3.72,0l-3.84,7.09a12.15,12.15,0,0,1-6.43-10.69h8.07s0-.08,0-.13A3.86,3.86,0,0,1,48.23,47l-4.17-6.9a12.11,12.11,0,0,1,12.79,0L52.67,47a3.85,3.85,0,0,1,1.85,3.28s0,.08,0,.13l8.07,0A12.15,12.15,0,0,1,56.16,61.16Z" transform="translate(0 0)"/><circle class="cls-2" cx="50.45" cy="50.45" r="2.61"/></svg>